<svg width="26" height="26" viewBox="0 0 26 26" fill="none" xmlns="http://www.w3.org/2000/svg">
<path d="M13.1892 23.4581V8.33087M11.4288 7.42337C11.6161 7.46539 11.8134 7.41388 11.9482 7.27905C12.0831 7.14422 12.1345 6.94681 12.0925 6.7596C11.9245 6.07301 11.3053 3.77391 10.6695 3.13814C9.87744 2.34605 8.58827 2.34275 7.8001 3.13092C7.01198 3.91904 7.01517 5.2082 7.80731 6.00035C8.45349 6.64653 10.7422 7.2553 11.4288 7.42337ZM13.3512 6.75955C13.3092 6.94683 13.3607 7.14417 13.4956 7.279C13.6304 7.41383 13.8278 7.46526 14.015 7.42332C14.7016 7.25523 17.0007 6.63607 17.6365 6.0003C18.4286 5.2082 18.4319 3.91904 17.6437 3.13087C16.8556 2.34275 15.5664 2.34594 14.7743 3.13808C14.1281 3.78426 13.5193 6.07297 13.3512 6.75955ZM3.35646 13.6254H22.6437C23.0615 13.6254 23.4001 13.2868 23.4001 12.869V9.08723C23.4001 8.6695 23.0615 8.33087 22.6437 8.33087H3.35646C2.93873 8.33087 2.6001 8.6695 2.6001 9.08723V12.869C2.6001 13.2868 2.93873 13.6254 3.35646 13.6254ZM21.5092 13.6254V22.7018C21.5092 23.1195 21.1706 23.4581 20.7528 23.4581H5.24737C4.82964 23.4581 4.49101 23.1195 4.49101 22.7018V13.6254H21.5092Z" stroke="white" stroke-width="2" stroke-linecap="round" stroke-linejoin="round"/>
</svg>
