<svg width="85" height="85" viewBox="0 0 85 85" fill="none" xmlns="http://www.w3.org/2000/svg">
<path d="M8.50033 49.9224L8.49964 31.2658C8.49947 26.5713 12.3051 22.7655 16.9996 22.7655L68.0003 22.7651C72.6947 22.7651 76.5003 26.5707 76.5003 31.2651V49.9224M8.50033 49.9224H76.5003M8.50033 49.9224L8.49963 69.5147C8.49947 74.2093 12.3051 78.015 16.9996 78.015H68.0003C72.6948 78.015 76.5003 74.2095 76.5003 69.515V49.9224M43.1185 78.015V22.765M38.8319 20.9758C39.4684 20.9497 40.0568 20.615 40.3732 20.067C40.6896 19.5189 40.6849 18.8419 40.3896 18.2778C39.261 16.2211 35.3013 9.38261 32.717 7.8906C29.4974 6.03175 25.3618 7.12854 23.5121 10.3322C21.6626 13.5357 22.7802 17.6657 26 19.5247C28.6266 21.0411 36.4865 21.0268 38.8319 20.9758ZM44.7479 18.2772C44.4523 18.8415 44.4479 19.5183 44.7643 20.0664C45.0807 20.6145 45.6694 20.9489 46.3056 20.9752C48.651 21.0262 56.5532 21.0162 59.1374 19.5242C62.3571 17.6653 63.475 13.5354 61.6253 10.3317C59.7758 7.12819 55.6403 6.03104 52.4205 7.89003C49.7939 9.40646 45.8764 16.2206 44.7479 18.2772Z" stroke="black" stroke-width="2" stroke-linecap="round" stroke-linejoin="round"/>
</svg>
