<svg width="85" height="85" viewBox="0 0 85 85" fill="none" xmlns="http://www.w3.org/2000/svg">
<path d="M31.2071 75.2414L42.4972 63.9513M42.4972 63.9513L53.7874 75.2414M42.4972 63.9513V21.0487M53.7874 9.75854L42.4972 21.0487M42.4972 21.0487L31.2071 9.75854M8.5 49.0933L23.9226 53.2257M23.9226 53.2257L19.7902 68.6484M23.9226 53.2257L61.0774 31.7745M76.5 35.9069L61.0774 31.7745M61.0774 31.7745L65.2098 16.3518M19.7902 16.3518L23.9226 31.7744M23.9226 31.7744L8.5 35.9069M23.9226 31.7744L61.0774 53.2257M65.2098 68.6484L61.0774 53.2257M61.0774 53.2257L76.5 49.0933" stroke="black" stroke-width="2" stroke-linecap="round" stroke-linejoin="round"/>
</svg>
