<svg width="85" height="85" viewBox="0 0 85 85" fill="none" xmlns="http://www.w3.org/2000/svg">
<path d="M18.2143 60.3095H14.9762C11.3995 60.3095 8.5 57.41 8.5 53.8333V24.6904C8.5 21.1137 11.3995 18.2142 14.9762 18.2142H44.119C47.6957 18.2142 50.5952 21.1137 50.5952 24.6904V53.8333C50.5952 57.41 47.6957 60.3095 44.119 60.3095H40.8809M55.4524 60.3095H53.8333C52.045 60.3095 50.5952 58.8597 50.5952 57.0714V29.5476C50.5952 27.7592 52.045 26.3095 53.8333 26.3095H61.9913C62.975 26.3095 63.9053 26.7566 64.5198 27.5247L75.7904 41.613C76.2497 42.1871 76.5 42.9005 76.5 43.6358V57.0714C76.5 58.8597 75.0502 60.3095 73.2619 60.3095M37.6429 58.6904C37.6429 63.1613 34.0185 66.7857 29.5476 66.7857C25.0767 66.7857 21.4524 63.1613 21.4524 58.6904C21.4524 54.2195 25.0767 50.5952 29.5476 50.5952C34.0185 50.5952 37.6429 54.2195 37.6429 58.6904ZM71.6428 58.6904C71.6428 63.1613 68.0185 66.7857 63.5476 66.7857C59.0767 66.7857 55.4524 63.1613 55.4524 58.6904C55.4524 54.2195 59.0767 50.5952 63.5476 50.5952C68.0185 50.5952 71.6428 54.2195 71.6428 58.6904Z" stroke="black" stroke-width="2" stroke-linecap="round"/>
</svg>
